<?xml version="1.0" encoding="utf-8"?>
<!-- Generator: Adobe Illustrator 16.0.0, SVG Export Plug-In . SVG Version: 6.00 Build 0)  -->
<!DOCTYPE svg PUBLIC "-//W3C//DTD SVG 1.1//EN" "http://www.w3.org/Graphics/SVG/1.1/DTD/svg11.dtd">
<svg version="1.1" id="Layer_1" xmlns="http://www.w3.org/2000/svg" xmlns:xlink="http://www.w3.org/1999/xlink" x="0px" y="0px"
	 width="317.46px" height="132.45px" viewBox="0 0 317.46 132.45" enable-background="new 0 0 317.46 132.45" xml:space="preserve">
<g>
	<path d="M166.894,20.338c-1.865-3.32-4.404-6.004-7.558-7.948c-3.108-1.919-6.659-3.236-10.62-3.978
		c-3.892-0.721-7.936-1.083-12.131-1.083h-30.494c-0.489,0-0.969,0.198-1.309,0.544c-0.35,0.348-0.543,0.827-0.543,1.315v81.378
		c0,0.492,0.188,0.961,0.543,1.311c0.35,0.352,0.817,0.543,1.309,0.543h10.768c0.493,0,0.963-0.191,1.311-0.543
		c0.354-0.35,0.546-0.818,0.546-1.311V59.884h18.592c10.231,0,18.274-2.171,23.943-6.789c5.682-4.631,8.493-11.558,8.468-20.148
		C169.718,27.992,168.817,23.766,166.894,20.338z M137.549,46.48h-18.834V20.728h18.47c2.563,0,4.976,0.178,7.24,0.523
		c2.166,0.33,4.007,0.966,5.574,1.873c1.492,0.878,2.651,2.064,3.549,3.659c0.834,1.489,1.33,3.61,1.33,6.405
		c0,2.313-0.328,4.271-0.939,5.904c-0.599,1.595-1.51,2.882-2.813,3.969c-1.292,1.079-3.011,1.936-5.243,2.523
		C143.669,46.171,140.882,46.485,137.549,46.48z"/>
	<path d="M240.978,79.569c-0.352-0.344-0.83-0.543-1.316-0.543h-48.119l-0.004-23.894h43.129c0.496,0,0.965-0.195,1.314-0.543
		c0.35-0.351,0.543-0.82,0.543-1.318v-9.679c0-0.49-0.199-0.97-0.543-1.313c-0.346-0.349-0.828-0.547-1.314-0.547h-43.129V20.728
		h46.318c0.496,0,0.965-0.192,1.313-0.545c0.355-0.348,0.547-0.814,0.547-1.311V9.188c0-0.488-0.201-0.968-0.541-1.315
		c-0.35-0.346-0.824-0.544-1.318-0.544h-58.942c-0.491,0-0.966,0.198-1.314,0.544c-0.343,0.348-0.543,0.827-0.543,1.315v81.378
		c0,0.492,0.191,0.961,0.543,1.311c0.354,0.352,0.818,0.543,1.314,0.543h60.747c0.492,0,0.963-0.191,1.313-0.543
		c0.352-0.35,0.543-0.818,0.543-1.311v-9.688C241.517,80.393,241.317,79.913,240.978,79.569z"/>
	<path d="M317.044,7.873c-0.346-0.346-0.822-0.544-1.314-0.544h-10.344c-0.49,0-0.971,0.198-1.313,0.544
		c-0.346,0.348-0.547,0.827-0.547,1.315v58.117L264.413,8.161c-0.344-0.517-0.926-0.832-1.551-0.832h-11.125
		c-0.49,0-0.967,0.198-1.313,0.544c-0.344,0.348-0.543,0.827-0.543,1.315v81.378c0,0.492,0.191,0.961,0.543,1.311
		c0.348,0.352,0.818,0.543,1.313,0.543h10.229c0.494,0,0.963-0.191,1.313-0.543c0.352-0.35,0.541-0.818,0.541-1.311V32.534
		l39.303,59.06c0.338,0.518,0.922,0.826,1.543,0.826h11.064c0.498,0,0.965-0.191,1.314-0.543c0.35-0.35,0.545-0.818,0.545-1.311
		V9.188C317.589,8.7,317.392,8.221,317.044,7.873z"/>
	<path fill="none" d="M81.06,45.464"/>
	<path fill="#00B288" d="M48.068,14.713c16.775,0.033,30.623,12.345,33.081,28.435c5.717,0.826,10.401,2.307,14.141,3.954
		c-0.026-1.086-0.095-1.622-0.095-1.622l-0.015-0.016C93.76,20.667,73.215,1.003,48.068,1C23.13,1.003,2.737,20.332,1,44.83
		c0.087,1.615,0.903,4.679,5.491,6.924l-0.276-0.076c4.638,2.507,11.873,5.447,20.409,5.464c6.348,0,14.81-1.688,21.819-6.417
		c4.903-3.308,10.51-6.424,16.586-6.435c1.878-0.005,3.755,0.202,5.589,0.581c0.513,0.108,1.031,0.218,1.532,0.365
		c0,0,1.719,0.95,2.065-0.178c0.191-0.623,0-1.158-0.214-1.521c-0.587-1.006-2.106-1.974-3.063-2.591
		c-1.345-0.866-2.841-1.493-4.388-1.895c-3.551-0.92-7.354-0.654-10.918,0.065c-3.585,0.727-7.114,1.926-10.415,3.495
		c-5.714,2.723-11.721,3.721-15.381,3.721c-5.97-0.016-9.552-2.596-11.824-5.224c-0.819-0.956-1.44-1.914-1.905-2.749
		C20.327,24.689,33.009,14.743,48.068,14.713z"/>
	<path d="M81.811,48.632c-0.034,1.003-0.099,1.795-0.132,2.163h-0.023c-1.254,17.37-15.703,31.059-33.386,31.092
		c-14.445-0.029-26.26-7.982-30.929-20.695c-3.27-0.736-11.093-2.826-15.977-6.778c0,0.015-0.003,0.027-0.007,0.043
		C3.744,78.299,23.799,95.596,48.27,95.602c24.538-0.006,44.692-18.725,46.977-42.668C90.701,50.604,85.763,49.329,81.811,48.632z"
		/>
</g>
<rect x="4.169" y="105.788" width="313.291" height="26.662"/>
<g>
	<path fill="#FFFFFF" d="M51.623,117.249h-7.268v-3.057c0-0.029-0.012-0.061-0.033-0.082c-0.022-0.021-0.051-0.031-0.082-0.031
		h-1.981c-0.03,0-0.06,0.01-0.082,0.031c-0.021,0.021-0.032,0.053-0.032,0.082v3.057h-5.397c-0.029,0-0.059,0.012-0.08,0.035
		c-0.022,0.021-0.034,0.051-0.034,0.08v1.768c0,0.029,0.014,0.059,0.034,0.082c0.021,0.02,0.051,0.033,0.08,0.033h14.876
		c0.031,0,0.062-0.014,0.083-0.033c0.021-0.023,0.032-0.053,0.032-0.082v-1.768c0-0.029-0.011-0.059-0.032-0.08
		C51.685,117.26,51.654,117.249,51.623,117.249z M48.652,121.284c-1.051-0.656-2.552-0.973-4.502-0.973
		c-1.928,0-3.415,0.316-4.468,0.973c-1.046,0.65-1.591,1.516-1.587,2.559c-0.002,1.031,0.546,1.893,1.597,2.549
		c1.057,0.662,2.549,0.982,4.476,0.984c1.95-0.002,3.448-0.322,4.494-0.984c1.039-0.658,1.581-1.518,1.579-2.549
		C50.243,122.799,49.698,121.934,48.652,121.284z M46.888,125.116c-0.68,0.285-1.587,0.432-2.72,0.432
		c-1.155,0-2.063-0.146-2.719-0.432c-0.649-0.287-0.941-0.699-0.947-1.291c0.004-0.539,0.297-0.934,0.949-1.229
		c0.654-0.291,1.562-0.441,2.717-0.441c1.133,0,2.038,0.15,2.72,0.441c0.678,0.297,0.979,0.691,0.981,1.229
		C47.866,124.415,47.563,124.829,46.888,125.116z M38.337,112.485h9.62c-0.017,0.611-0.068,1.25-0.158,1.916
		c-0.094,0.713-0.195,1.336-0.302,1.871c-0.009,0.033,0.001,0.07,0.024,0.096c0.021,0.027,0.054,0.043,0.088,0.043l1.908,0.018
		c0.056,0,0.105-0.039,0.115-0.096c0.144-0.828,0.268-1.707,0.377-2.635c0.105-0.93,0.166-1.959,0.178-3.09
		c0-0.031-0.012-0.061-0.034-0.082c-0.021-0.021-0.05-0.035-0.08-0.035H38.337c-0.031,0-0.062,0.014-0.083,0.035
		c-0.022,0.02-0.034,0.051-0.034,0.082v1.764c0,0.029,0.014,0.059,0.034,0.08C38.277,112.473,38.306,112.485,38.337,112.485z
		 M54.39,112.485h9.62c-0.018,0.611-0.068,1.25-0.158,1.916c-0.094,0.713-0.195,1.336-0.302,1.871
		c-0.008,0.033,0.001,0.07,0.024,0.096c0.021,0.027,0.054,0.043,0.088,0.043l1.908,0.018c0.056,0,0.105-0.039,0.115-0.096
		c0.143-0.828,0.268-1.707,0.377-2.635c0.105-0.93,0.164-1.959,0.178-3.09c0-0.031-0.011-0.061-0.034-0.082
		c-0.021-0.021-0.05-0.035-0.08-0.035H54.39c-0.031,0-0.062,0.014-0.082,0.035c-0.023,0.02-0.035,0.051-0.035,0.082v1.764
		c0,0.029,0.014,0.059,0.035,0.08C54.33,112.473,54.358,112.485,54.39,112.485z M64.705,121.284
		c-1.051-0.656-2.552-0.973-4.502-0.973c-1.928,0-3.415,0.316-4.468,0.973c-1.045,0.65-1.591,1.516-1.587,2.559
		c-0.002,1.031,0.546,1.893,1.597,2.549c1.057,0.662,2.549,0.982,4.476,0.984c1.95-0.002,3.448-0.322,4.494-0.984
		c1.039-0.658,1.581-1.518,1.58-2.549C66.296,122.799,65.751,121.934,64.705,121.284z M62.94,125.116
		c-0.681,0.285-1.587,0.432-2.72,0.432c-1.155,0-2.063-0.146-2.718-0.432c-0.65-0.287-0.942-0.699-0.948-1.291
		c0.004-0.539,0.296-0.934,0.949-1.229c0.654-0.291,1.562-0.441,2.717-0.441c1.133,0,2.038,0.15,2.72,0.441
		c0.678,0.297,0.979,0.691,0.981,1.229C63.919,124.415,63.616,124.829,62.94,125.116z M67.676,117.249h-7.268v-3.057
		c0-0.029-0.012-0.061-0.033-0.082c-0.022-0.021-0.051-0.031-0.082-0.031h-1.981c-0.03,0-0.059,0.01-0.082,0.031
		c-0.021,0.021-0.032,0.053-0.032,0.082v3.057h-5.396c-0.03,0-0.06,0.012-0.08,0.035c-0.023,0.021-0.035,0.051-0.035,0.08v1.768
		c0,0.029,0.014,0.059,0.035,0.082c0.021,0.02,0.05,0.033,0.08,0.033h14.875c0.031,0,0.062-0.014,0.083-0.033
		c0.021-0.023,0.032-0.053,0.032-0.082v-1.768c0-0.029-0.012-0.059-0.032-0.08C67.737,117.26,67.707,117.249,67.676,117.249z
		 M70.673,117.444h11.56c0.03,0,0.06-0.014,0.08-0.035c0.023-0.021,0.035-0.051,0.035-0.082v-1.764c0-0.031-0.012-0.061-0.033-0.082
		c-0.022-0.021-0.054-0.035-0.082-0.035h-9.554v-4.801c0-0.033-0.012-0.061-0.033-0.082c-0.022-0.023-0.051-0.035-0.081-0.035
		h-1.892c-0.03,0-0.059,0.012-0.08,0.035c-0.023,0.021-0.035,0.049-0.035,0.082v6.682c0,0.031,0.012,0.061,0.035,0.082
		C70.614,117.43,70.643,117.444,70.673,117.444z M83.729,119.313H68.854c-0.03,0-0.062,0.012-0.083,0.035
		c-0.021,0.021-0.032,0.051-0.032,0.082v1.746c0,0.031,0.011,0.059,0.032,0.082c0.021,0.021,0.053,0.035,0.083,0.035h6.358v5.648
		c0,0.029,0.012,0.059,0.035,0.08c0.021,0.021,0.049,0.033,0.08,0.033h1.962c0.03,0,0.06-0.012,0.082-0.033
		c0.021-0.021,0.032-0.051,0.032-0.08v-5.65h6.325c0.03,0,0.059-0.012,0.082-0.033c0.021-0.023,0.032-0.051,0.032-0.082v-1.746
		c0-0.031-0.012-0.061-0.032-0.082C83.791,119.329,83.76,119.313,83.729,119.313z M95.732,120.649
		c-0.521,0.088-1.313,0.195-2.375,0.318c-1.063,0.125-1.995,0.189-2.796,0.189h-2.364v-3.188h5.43c0.033,0,0.062-0.012,0.083-0.037
		c0.021-0.02,0.034-0.049,0.034-0.078v-6.814c0-0.033-0.013-0.063-0.034-0.082c-0.021-0.021-0.052-0.035-0.083-0.035h-7.453
		c-0.031,0-0.062,0.012-0.083,0.035c-0.021,0.02-0.034,0.049-0.034,0.082v1.764c0,0.029,0.014,0.061,0.034,0.08
		c0.021,0.023,0.052,0.035,0.083,0.035h5.431v3.092h-5.431c-0.031,0-0.062,0.01-0.083,0.033c-0.021,0.023-0.034,0.051-0.034,0.082
		v6.947c0,0.031,0.014,0.061,0.034,0.084c0.023,0.02,0.052,0.031,0.083,0.031c0.013,0,0.588-0.008,1.73-0.02
		c1.141-0.012,1.849-0.018,2.122-0.018c1.051-0.025,2.135-0.1,3.249-0.217c1.112-0.119,1.942-0.223,2.494-0.311
		c0.055-0.01,0.098-0.057,0.098-0.113v-1.748c0-0.033-0.016-0.066-0.04-0.088C95.801,120.653,95.765,120.643,95.732,120.649z
		 M98.525,110.092c-0.021-0.021-0.051-0.033-0.082-0.033h-1.926c-0.03,0-0.06,0.012-0.08,0.033
		c-0.023,0.021-0.035,0.051-0.035,0.082v16.768c0,0.029,0.012,0.059,0.035,0.084c0.021,0.02,0.05,0.029,0.08,0.029h1.926
		c0.031,0,0.06-0.012,0.082-0.033c0.021-0.021,0.035-0.051,0.035-0.08v-16.768C98.561,110.143,98.547,110.114,98.525,110.092z"/>
</g>
<g>
	<path fill="#FFFFFF" d="M120.485,118.915v-1.148h5.202v-3.049h1.377v3.049h6.921v1.148H120.485z M123.305,125.196
		c-0.918-0.557-1.377-1.246-1.377-2.066c0-0.832,0.459-1.52,1.377-2.066c0.919-0.545,2.226-0.818,3.922-0.818
		c1.707,0,3.017,0.273,3.931,0.818c0.912,0.547,1.369,1.234,1.369,2.066c0,0.82-0.457,1.51-1.369,2.066
		c-0.914,0.557-2.224,0.834-3.931,0.834C125.53,126.03,124.224,125.752,123.305,125.196z M132.462,111.737
		c-0.011,0.918-0.076,1.809-0.194,2.674c-0.119,0.863-0.254,1.637-0.405,2.316h-1.297c0.118-0.52,0.227-1.137,0.324-1.854
		c0.098-0.721,0.151-1.381,0.162-1.988h-8.994v-1.148H132.462z M124.456,124.483c0.701,0.307,1.625,0.461,2.771,0.461
		c1.135,0,2.056-0.154,2.764-0.461c0.707-0.309,1.062-0.766,1.062-1.369c0-0.584-0.354-1.027-1.062-1.33
		c-0.708-0.303-1.629-0.453-2.764-0.453c-1.146,0-2.069,0.15-2.771,0.453c-0.703,0.303-1.054,0.746-1.054,1.33
		C123.402,123.717,123.753,124.174,124.456,124.483z"/>
	<path fill="#FFFFFF" d="M135.07,118.915v-1.148h5.203v-3.049h1.377v3.049h6.921v1.148H135.07z M137.891,125.196
		c-0.918-0.557-1.378-1.246-1.378-2.066c0-0.832,0.46-1.52,1.378-2.066c0.919-0.545,2.226-0.818,3.922-0.818
		c1.707,0,3.018,0.273,3.931,0.818c0.912,0.547,1.369,1.234,1.369,2.066c0,0.82-0.457,1.51-1.369,2.066
		c-0.913,0.557-2.224,0.834-3.931,0.834C140.116,126.03,138.81,125.752,137.891,125.196z M147.048,111.737
		c-0.011,0.918-0.077,1.809-0.194,2.674c-0.119,0.863-0.255,1.637-0.406,2.316h-1.297c0.119-0.52,0.228-1.137,0.325-1.854
		c0.097-0.721,0.15-1.381,0.162-1.988h-8.994v-1.148H147.048z M139.042,124.483c0.701,0.307,1.625,0.461,2.771,0.461
		c1.135,0,2.055-0.154,2.764-0.461c0.707-0.309,1.062-0.766,1.062-1.369c0-0.584-0.354-1.027-1.062-1.33
		c-0.709-0.303-1.629-0.453-2.764-0.453c-1.146,0-2.069,0.15-2.771,0.453c-0.703,0.303-1.055,0.746-1.055,1.33
		C137.987,123.717,138.339,124.174,139.042,124.483z"/>
	<path fill="#FFFFFF" d="M155.54,116.817c0.161,0.643,0.399,1.24,0.713,1.791c0.334,0.594,0.762,1.137,1.279,1.629
		c0.52,0.492,1.124,0.943,1.815,1.354c-0.173,0.129-0.353,0.287-0.543,0.469c-0.189,0.184-0.348,0.346-0.478,0.488
		c-0.368-0.238-0.728-0.51-1.078-0.813c-0.352-0.303-0.683-0.625-0.996-0.973c-0.356-0.398-0.679-0.822-0.965-1.271
		c-0.285-0.447-0.521-0.91-0.705-1.385c-0.129,0.441-0.321,0.891-0.575,1.344c-0.253,0.455-0.549,0.893-0.883,1.313
		c-0.336,0.434-0.699,0.838-1.095,1.217c-0.394,0.377-0.78,0.697-1.158,0.955c-0.141-0.139-0.324-0.293-0.551-0.461
		c-0.228-0.168-0.449-0.322-0.665-0.461c0.671-0.412,1.272-0.879,1.807-1.402c0.535-0.525,0.976-1.1,1.321-1.727
		c0.356-0.625,0.629-1.301,0.818-2.025c0.188-0.725,0.284-1.496,0.284-2.318v-1.166h-3.144v-1.15h7.762v1.15h-3.209v1.377
		C155.296,115.485,155.378,116.174,155.54,116.817z M160.872,125.739v-8.605h-3.112v-1.215h3.112v-4.604h1.377v14.424H160.872z"/>
	<path fill="#FFFFFF" d="M169.963,115.083c0.195,0.459,0.459,0.879,0.794,1.256c0.346,0.4,0.76,0.746,1.24,1.039
		c0.48,0.291,0.975,0.523,1.483,0.695c-0.162,0.152-0.324,0.318-0.487,0.502c-0.162,0.184-0.297,0.346-0.404,0.486
		c-0.325-0.141-0.672-0.318-1.046-0.535c-0.372-0.215-0.732-0.469-1.078-0.76c-0.302-0.25-0.583-0.52-0.842-0.811
		c-0.26-0.293-0.481-0.605-0.665-0.941c-0.119,0.336-0.292,0.662-0.519,0.98c-0.227,0.32-0.479,0.619-0.763,0.9
		c-0.334,0.324-0.703,0.621-1.108,0.893c-0.406,0.268-0.813,0.506-1.225,0.711c-0.119-0.119-0.283-0.264-0.494-0.438
		c-0.21-0.172-0.407-0.328-0.591-0.469c0.604-0.26,1.171-0.57,1.701-0.932c0.529-0.363,0.978-0.793,1.345-1.291
		c0.292-0.387,0.521-0.822,0.688-1.303c0.168-0.48,0.252-1.002,0.252-1.564v-0.373h-2.901v-1.15h7.213v1.15h-2.885v0.422
		C169.672,114.114,169.769,114.624,169.963,115.083z M174.891,125.836v-3.988h-8.266v-1.166h9.61v5.154H174.891z M176.235,115.918
		V120h-1.345v-8.686h1.345v3.402h2.041v1.201H176.235z"/>
	<path fill="#FFFFFF" d="M186.25,118.333v1.459h4.279v3.387h-8.412v1.377h8.735v1.055h-10.226v-3.453h8.427v-1.297h-8.427v-1.068
		h4.229v-1.459h-6.028v-1.086h13.5v1.086H186.25z M180.595,116.03v-4.309h9.95v4.309H180.595z M189.216,112.79h-7.309v2.172h7.309
		V112.79z"/>
	<path fill="#FFFFFF" d="M203.85,116.817c0.162,0.643,0.4,1.24,0.714,1.791c0.346,0.594,0.775,1.137,1.288,1.629
		s1.121,0.943,1.823,1.354c-0.173,0.129-0.354,0.287-0.543,0.469c-0.189,0.184-0.349,0.346-0.479,0.488
		c-0.366-0.238-0.729-0.51-1.086-0.813s-0.691-0.625-1.004-0.973c-0.357-0.398-0.679-0.822-0.965-1.271
		c-0.286-0.447-0.521-0.91-0.705-1.385c-0.119,0.441-0.308,0.891-0.566,1.344c-0.26,0.455-0.557,0.893-0.892,1.313
		c-0.335,0.434-0.697,0.838-1.086,1.217c-0.39,0.377-0.773,0.697-1.151,0.955c-0.15-0.139-0.338-0.293-0.559-0.461
		s-0.445-0.322-0.673-0.461c0.682-0.412,1.281-0.877,1.8-1.395s0.961-1.092,1.328-1.719c0.356-0.625,0.63-1.305,0.818-2.033
		c0.189-0.729,0.284-1.504,0.284-2.326v-1.166h-3.128v-1.15h7.763v1.15h-3.224v1.377
		C203.608,115.485,203.688,116.174,203.85,116.817z M209.993,111.315v5.59h2.171v1.217h-2.171v7.633h-1.362v-14.439H209.993z"/>
	<path fill="#FFFFFF" d="M222.813,120.682v5.057h-1.379v-5.057h-3.581v4.943h-1.378V120.7h-3.614v-1.184h13.501v1.166H222.813z
		 M215.771,117.141c-0.935-0.631-1.402-1.418-1.402-2.357c0-0.941,0.465-1.732,1.393-2.375c0.931-0.643,2.211-0.965,3.842-0.965
		c1.643,0,2.929,0.32,3.857,0.957c0.93,0.637,1.394,1.432,1.394,2.383c0,0.93-0.464,1.711-1.394,2.35
		c-0.929,0.637-2.215,0.957-3.857,0.957C217.983,118.09,216.705,117.774,215.771,117.141z M216.889,116.331
		c0.729,0.385,1.634,0.574,2.714,0.574s1.98-0.186,2.699-0.557c0.719-0.373,1.077-0.885,1.077-1.533c0-0.68-0.356-1.215-1.069-1.604
		c-0.714-0.389-1.615-0.584-2.707-0.584c-1.091,0-1.998,0.191-2.723,0.574c-0.724,0.385-1.085,0.912-1.085,1.582
		C215.795,115.43,216.159,115.948,216.889,116.331z"/>
	<path fill="#FFFFFF" d="M229.385,113.042c0.76-0.871,1.584-1.305,2.47-1.305c0.908,0,1.734,0.436,2.479,1.313
		c0.746,0.875,1.119,2.264,1.119,4.166c0,1.867-0.367,3.25-1.102,4.148c-0.736,0.896-1.568,1.344-2.496,1.344
		c-0.917,0-1.751-0.445-2.495-1.336c-0.746-0.893-1.119-2.279-1.119-4.156C228.24,115.301,228.623,113.911,229.385,113.042z
		 M230.17,120.204c0.398,0.869,0.966,1.305,1.7,1.305s1.291-0.436,1.668-1.305c0.379-0.869,0.568-1.871,0.568-3.006
		c0-1.102-0.189-2.088-0.568-2.957c-0.377-0.871-0.934-1.305-1.668-1.305s-1.302,0.438-1.7,1.313c-0.4,0.875-0.6,1.859-0.6,2.949
		C229.57,118.333,229.77,119.334,230.17,120.204z M238.353,125.739v-14.424h1.361v14.424H238.353z"/>
	<path fill="#FFFFFF" d="M242.032,119.547v-1.15h3.678v-2.139c-0.691-0.248-1.215-0.576-1.57-0.98
		c-0.357-0.404-0.535-0.846-0.535-1.322c0-0.766,0.449-1.414,1.354-1.945c0.9-0.527,2.168-0.793,3.799-0.793
		c1.666,0,2.951,0.27,3.857,0.811c0.908,0.541,1.363,1.195,1.363,1.961c0,0.465-0.178,0.896-0.527,1.297
		c-0.352,0.4-0.873,0.725-1.564,0.973v2.139h3.646v1.15H242.032z M244.86,121.385c0.912-0.5,2.217-0.752,3.914-0.752
		c1.707,0,3.014,0.258,3.922,0.77c0.908,0.514,1.361,1.16,1.361,1.938c0,0.756-0.451,1.395-1.354,1.912s-2.213,0.777-3.93,0.777
		c-1.697,0-3.002-0.26-3.914-0.777c-0.914-0.518-1.369-1.16-1.369-1.93C243.491,122.536,243.946,121.889,244.86,121.385z
		 M246.026,124.54c0.688,0.291,1.604,0.438,2.748,0.438c1.123,0,2.031-0.146,2.721-0.438c0.693-0.291,1.039-0.691,1.039-1.199
		c0-0.539-0.346-0.957-1.039-1.248c-0.689-0.291-1.598-0.438-2.721-0.438c-1.145,0-2.061,0.146-2.748,0.438
		c-0.686,0.291-1.029,0.703-1.029,1.23C244.997,123.842,245.341,124.249,246.026,124.54z M246.075,115.163
		c0.676,0.32,1.57,0.479,2.682,0.479c1.104,0,2.002-0.152,2.699-0.461c0.697-0.307,1.045-0.711,1.045-1.207
		c0-0.508-0.348-0.922-1.045-1.24s-1.596-0.479-2.699-0.479c-1.102,0-1.992,0.154-2.672,0.463c-0.682,0.307-1.021,0.715-1.021,1.223
		C245.063,114.438,245.399,114.844,246.075,115.163z M250.558,116.549c-0.26,0.055-0.543,0.096-0.852,0.121
		c-0.309,0.027-0.623,0.041-0.949,0.041c-0.301,0-0.602-0.014-0.898-0.041c-0.297-0.025-0.564-0.063-0.803-0.105v1.832h3.502
		V116.549z"/>
	<path fill="#FFFFFF" d="M257.362,115.157v-1.168h8.412v1.168H257.362z M258.937,117.254c0.68-0.686,1.57-1.029,2.672-1.029
		c1.059,0,1.934,0.344,2.619,1.029s1.027,1.494,1.027,2.424c0,0.906-0.342,1.717-1.027,2.432c-0.686,0.713-1.561,1.068-2.619,1.068
		c-1.078,0-1.965-0.352-2.656-1.053c-0.691-0.703-1.037-1.518-1.037-2.447S258.255,117.94,258.937,117.254z M259.925,121.338
		c0.398,0.449,0.961,0.674,1.684,0.674c0.703,0,1.254-0.229,1.654-0.682s0.6-1.006,0.6-1.652c0-0.639-0.199-1.182-0.6-1.629
		c-0.4-0.449-0.951-0.672-1.654-0.672c-0.723,0-1.285,0.223-1.684,0.672c-0.4,0.447-0.6,0.99-0.6,1.629
		C259.325,120.336,259.524,120.891,259.925,121.338z M259.39,112.774v-1.135h4.375v1.135H259.39z M267.962,125.739v-7.164h-2.414
		v-1.215h2.414v-6.045h1.361v14.424H267.962z"/>
	<path fill="#FFFFFF" d="M280.993,118.93c-0.521,0.1-1.307,0.201-2.359,0.311c-1.053,0.107-2.006,0.172-2.859,0.193
		c-0.563,0.012-1.301,0.021-2.213,0.031c-0.912,0.012-1.391,0.018-1.436,0.018v-4.457h5.35v-2.041h-5.35v-1.135h6.678v4.277h-5.363
		v2.189l2.496-0.033c0.668-0.01,1.539-0.068,2.609-0.17c1.068-0.104,1.885-0.209,2.447-0.316V118.93z M281.606,125.836v-3.727
		h-8.248v-1.17h9.643v4.896H281.606z M283.001,115.934v4.326h-1.359v-8.945h1.359v3.436h1.994v1.184H283.001z"/>
</g>
</svg>
